<svg width="147" height="147" viewBox="0 0 147 147" fill="none" xmlns="http://www.w3.org/2000/svg">
<rect x="50" y="20" width="70" height="80" rx="8" fill="#000822"/>
<rect x="50" y="20" width="70" height="30" rx="8" fill="url(#paint0_linear_protect)"/>
<circle cx="75" cy="45" r="5" fill="#0388FF"/>
<circle cx="95" cy="45" r="5" fill="#0388FF"/>
<rect x="55" y="55" width="20" height="20" rx="3" fill="#0388FF" fill-opacity="0.2" stroke="#0388FF" stroke-width="2"/>
<rect x="82" y="55" width="20" height="20" rx="3" fill="#0388FF" fill-opacity="0.2" stroke="#0388FF" stroke-width="2"/>
<path d="M55 80L65 90L95 60" stroke="#0388FF" stroke-width="3" stroke-linecap="round" stroke-linejoin="round"/>
<path d="M82 80L92 90L122 60" stroke="#0388FF" stroke-width="3" stroke-linecap="round" stroke-linejoin="round"/>
<circle cx="85" cy="95" r="35" fill="url(#paint1_linear_protect)" fill-opacity="0.48"/>
<path d="M60 105C45 115 35 125 35 135C35 142 70 147 85 147C100 147 135 142 135 135C135 125 125 115 110 105" stroke="#000822" stroke-width="3" stroke-linecap="round" stroke-linejoin="round"/>
<path d="M85 110C78 115 72 120 72 128C72 134 77 139 85 142C93 139 98 134 98 128C98 120 92 115 85 110Z" fill="url(#paint2_linear_protect)"/>
<defs>
<linearGradient id="paint0_linear_protect" x1="85" y1="20" x2="85" y2="50" gradientUnits="userSpaceOnUse">
<stop stop-color="white" stop-opacity="0.3"/>
<stop offset="1" stop-color="#0388FF"/>
</linearGradient>
<linearGradient id="paint1_linear_protect" x1="50" y1="60" x2="120" y2="130" gradientUnits="userSpaceOnUse">
<stop stop-color="white" stop-opacity="0.3"/>
<stop offset="1" stop-color="#0388FF"/>
</linearGradient>
<linearGradient id="paint2_linear_protect" x1="72" y1="110" x2="98" y2="142" gradientUnits="userSpaceOnUse">
<stop stop-color="white" stop-opacity="0.3"/>
<stop offset="1" stop-color="#0388FF"/>
</linearGradient>
</defs>
</svg>
